<?xml version="1.0" standalone="no"?>
<!DOCTYPE svg PUBLIC "-//W3C//DTD SVG 20010904//EN"
 "http://www.w3.org/TR/2001/REC-SVG-20010904/DTD/svg10.dtd">
<svg version="1.0" xmlns="http://www.w3.org/2000/svg"
 width="220.000000pt" height="208.000000pt" viewBox="0 0 220.000000 208.000000"
 preserveAspectRatio="xMidYMid meet">

<g transform="translate(0.000000,208.000000) scale(0.100000,-0.100000)"
fill="#34CB79" stroke="none">
<path d="M920 2035 c0 -8 6 -15 13 -15 31 0 74 -61 196 -272 72 -125 131 -231
131 -236 0 -4 -29 -25 -65 -46 -36 -21 -64 -43 -62 -50 3 -8 75 -11 246 -11
l243 0 119 205 c65 113 118 211 119 218 0 19 -14 15 -79 -23 -32 -19 -63 -35
-68 -35 -4 0 -40 58 -79 128 -44 78 -80 132 -95 139 -17 9 -105 13 -321 13
-258 0 -298 -2 -298 -15z"/>
<path d="M677 2005 c-22 -7 -50 -24 -63 -36 -34 -32 -247 -406 -241 -423 4 -9
271 -171 419 -252 5 -3 258 426 276 468 6 14 -111 199 -137 217 -61 42 -177
54 -254 26z"/>
<path d="M1675 1320 c-155 -88 -210 -125 -209 -138 0 -10 58 -118 130 -240
l129 -222 118 0 c78 0 129 5 151 14 40 17 99 74 122 118 24 46 29 136 12 178
-18 41 -214 379 -232 397 -9 10 -57 -14 -221 -107z"/>
<path d="M30 1328 c0 -7 28 -29 61 -48 33 -19 65 -38 71 -41 5 -4 -13 -46 -43
-99 -43 -75 -54 -104 -57 -150 -5 -74 17 -144 64 -199 56 -65 76 -71 218 -71
l125 0 71 125 c39 69 74 125 77 125 3 0 34 -16 69 -35 65 -36 84 -42 84 -25 0
6 -55 105 -122 220 l-122 210 -248 0 c-192 0 -248 -3 -248 -12z"/>
<path d="M1261 641 c-66 -115 -121 -212 -121 -216 0 -17 246 -425 255 -422 5
2 11 40 13 85 l3 82 145 0 c106 0 152 4 172 14 20 10 65 81 165 259 75 134
137 250 137 257 0 9 -7 10 -22 4 -13 -5 -152 -10 -310 -11 l-288 -4 0 81 c0
61 -3 80 -14 80 -7 0 -68 -94 -135 -209z"/>
<path d="M160 700 c0 -25 264 -482 293 -506 l29 -24 276 2 277 3 0 255 0 255
-420 5 c-231 3 -428 9 -437 14 -12 5 -18 4 -18 -4z"/>
</g>
</svg>
